PathFileType	4	(X/Y/Z)	Patient4_TMGait_0pt7_02_left_15.trc.trc
DataRate	CameraRate	NumFrames	NumMarkers	Units	OrigDataRate	OrigDataStartFrame	OrigNumFrames
83.832335329341	83.832335329341	5	33	mm	83.832335329341	124	       141
Frame#	Time	Sacral			L.Shoulder			Chest			R.Shoulder			Neck			R.ASIS			L.ASIS			R.Thigh.Superior			R.Thigh.Lateral			R.Thigh.Inferior			R.Patella			L.Thigh.Superior			L.Thigh.Lateral			L.Thigh.Inferior			L.Patella			L.Shank.Superior			L.Shank.Lateral			L.Shank.Inferior			R.Shank.Superior			R.Shank.Lateral			R.Shank.Inferior			R.Heel			R.Midfoot.Superior			R.Midfoot.Lateral			R.Toe			L.Heel			L.Midfoot.Lateral			L.Midfoot.Superior			L.Toe			L.Elbow			L.Wrist			R.Elbow			R.Wrist			
		X1	Y1	Z1	X2	Y2	Z2	X3	Y3	Z3	X4	Y4	Z4	X5	Y5	Z5	X6	Y6	Z6	X7	Y7	Z7	X8	Y8	Z8	X9	Y9	Z9	X10	Y10	Z10	X11	Y11	Z11	X12	Y12	Z12	X13	Y13	Z13	X14	Y14	Z14	X15	Y15	Z15	X16	Y16	Z16	X17	Y17	Z17	X18	Y18	Z18	X19	Y19	Z19	X20	Y20	Z20	X21	Y21	Z21	X22	Y22	Z22	X23	Y23	Z23	X24	Y24	Z24	X25	Y25	Z25	X26	Y26	Z26	X27	Y27	Z27	X28	Y28	Z28	X29	Y29	Z29	X30	Y30	Z30	X31	Y31	Z31	X32	Y32	Z32	X33	Y33	Z33	

124	18.307214285714	805.435809565335	1003.105702303894	505.190370376904	964.307796673039	1426.043299227873	317.001828500829	1090.378551081951	1348.140914424699	457.403430209685	1039.770115827440	1422.590056887515	642.921198548399	991.187578866317	1482.605711087000	471.767279292107	1033.748628445934	929.161914644108	607.577290314508	1005.716352057506	945.949302278357	333.334003971393	1019.331424588720	715.764921393416	583.075518767598	906.990398375793	628.492922448748	643.594533585506	962.540410856263	559.796954225994	563.662317478373	938.357698341926	475.908293947756	566.576956607055	1080.309937165117	767.892169048624	367.307511178235	1033.703522188821	634.743521689025	292.980240991050	1139.517612217880	581.043680158463	354.458084793332	1166.176922201590	515.632849947386	353.277873527352	1152.296234286899	441.859713844664	344.591314913589	1088.182543744883	308.947972391550	300.519281334612	1179.270488740182	214.205276229253	356.003732492877	896.072451513236	394.960552805055	572.983998779096	809.707638430615	302.732780233820	634.635651447236	834.682112129511	203.680830814717	567.735338893780	680.179766912717	48.701007092264	535.494808163663	853.587314841899	96.683518224186	568.740286424870	764.261185607912	38.598288700654	608.120617708276	972.501395756365	38.832247774851	594.935033793709	1100.303335098564	38.794561969653	400.952211260693	1171.933689487075	42.307273663927	318.499802959430	1244.342821065045	116.753347257991	338.313011403849	1376.677554172420	83.867878236909	308.742164888473	773.539485999602	1131.932666817606	241.435401709934	683.586132909139	889.878178959192	259.573336232372	1200.724208702446	1118.527120038513	729.839197521379	1418.319848030581	1190.861330855225	623.189652000925	
125	18.319142857143	806.747885944411	1001.473429851790	502.210759654381	964.575761086333	1424.541528056806	314.567483016528	1090.380928086369	1347.564374518856	455.753856123873	1038.312533217769	1421.894409306356	640.998256771373	990.550549835663	1481.565741494117	469.370764154662	1034.876393798179	927.810554134309	606.032475331215	1008.169579188503	944.588394697456	331.887127558385	1020.401585075059	714.307104792187	581.684192063745	907.432015076795	627.364386939571	641.843187726785	963.075365993793	558.121748235186	562.347494037231	937.890014397473	473.677724600212	565.082386078912	1081.924236271168	764.397963972757	365.607542792165	1032.349782510775	631.719221683838	293.002489875208	1137.783756310823	577.309350929899	354.564910316149	1162.604311632628	511.389886452919	354.417017722839	1148.728967626521	437.875738504012	345.456758707123	1083.926069147494	305.286024041477	301.844549781329	1174.042106227115	210.261917636803	358.039552722141	894.107324960470	393.220417174282	571.699591039982	805.965791472237	302.851212962409	633.673027726738	828.902198913082	203.151556701353	567.232471534051	671.938214449955	49.934135846966	535.671162661985	845.605762081022	96.793500972603	568.746282357189	755.995520747111	39.135536396980	608.300908496704	964.211543005628	38.569189031964	595.025611245405	1092.286567609672	37.696877816353	403.515936345621	1163.685941075843	39.730655111543	320.677629619045	1238.335032952350	111.503324314973	340.979609010453	1369.780403043967	74.677385537236	310.716330501480	775.945550872043	1128.970425751389	239.260675897884	685.708700014803	887.061710426519	258.008413694912	1199.736728723691	1118.005785302333	727.870210398289	1412.558935645432	1200.066430428984	620.139578638516	
126	18.331071428571	808.016687309752	1000.171187873231	499.319216758857	964.999636416095	1423.278215939706	312.019050249920	1090.528191617032	1347.166711512689	453.984644702862	1037.092361953052	1421.445321184218	638.966759522598	990.172226818997	1480.806950771634	466.844035107500	1035.977420815963	926.676775211036	604.360023098986	1010.426958246049	943.633629027732	330.329773000823	1021.589477917148	713.087263012458	580.153792019283	908.125936761637	626.385069228240	639.985498411383	963.984686879961	556.603880781163	560.969237557315	937.898651678380	471.465334787601	563.621725935832	1083.666400076670	761.727814599381	363.888307397204	1031.568105379350	629.660451437131	292.716057936575	1136.519550492559	574.585144558414	354.569827830368	1159.560522586806	508.078098557678	355.351344247967	1145.633844415587	434.689295882668	346.079893283905	1080.127992689520	302.583235060538	302.347127542820	1168.742793992098	207.006697517922	359.594100919381	892.458983326014	391.604571454763	570.424776745818	802.445788094400	303.253376872600	632.705324994226	823.343313938023	202.876419611554	566.815028415452	663.770272117423	51.636708016844	535.927791961410	837.844670524076	96.988691208880	568.863404930951	747.793078604738	39.851096285540	608.510257989101	955.950760974396	38.298566749491	595.101824465001	1083.736388497344	37.115943958205	405.220416793688	1155.102442715450	37.813498212232	322.173900110823	1231.862358736991	107.019616347444	343.193640026064	1362.507552546278	66.439781236029	312.555551297890	779.246879712417	1125.623237394262	236.690710858305	689.393340593068	883.573024554913	255.745522498996	1198.031493710276	1117.069205729159	726.302660603851	1406.219757540486	1207.688784303673	617.523501144768	
127	18.343000000000	809.210238049041	999.283483556257	496.553293204048	965.579960008426	1422.332514623833	309.390347593996	1090.822849659581	1346.990841308290	452.103379847251	1036.164089841053	1421.304931408626	636.835500796654	990.081594449296	1480.388077691678	464.222306905905	1037.008067082324	925.844215902725	602.545026347583	1012.424295066924	943.143668636365	328.623449693068	1022.821898152760	712.180029704515	578.481794220840	909.039070275735	625.616155538843	638.055998544165	965.244926944360	555.320173847432	559.557917011852	938.414300289249	469.323606854137	562.300960153452	1085.470962582694	760.013176628250	362.167191223557	1031.395966611523	628.637232332244	292.058012128963	1135.711637384734	572.906107542697	354.376637794278	1157.069845759342	505.750936478817	355.938769986102	1143.031961729149	432.347965231585	346.376538337703	1076.809685867350	300.859297920396	302.020254729444	1163.470256997912	204.504885866578	360.616032526661	891.140300209878	390.191803453089	569.251951779856	799.144542628727	304.021303417299	631.779523179105	818.044190985751	202.929956407279	566.538612972075	655.718705562283	53.912652190629	536.277024192126	830.357174639699	97.277239262522	569.117092681272	739.678020826967	40.794976705990	608.755892155612	947.717085196351	38.031385999066	595.153379327506	1074.984255672856	36.942354957936	406.140219904668	1146.461541381808	36.520135085269	323.028240905646	1225.051161645810	103.463351006377	344.865394889868	1355.024844660319	59.604395378035	314.120647731798	783.389721670476	1122.047877285211	233.753652565556	694.674156015544	879.535447395623	252.794935059958	1195.550575005459	1115.747348138071	725.141948025115	1399.444849740265	1213.679427739151	615.318624452132	
128	18.354928571429	810.302151627876	998.869133304497	493.920612445871	966.305302944330	1421.762966474908	306.715478814681	1091.255848754860	1347.067614747101	450.120513964851	1035.558722129089	1421.516908593609	634.613278521439	990.282614030258	1480.345498299026	461.541164043368	1037.929833212262	925.381589383214	600.574931283563	1014.125368772004	943.142664683605	326.732723047944	1024.051608126900	711.647003950343	576.676887025820	910.167768727825	625.100382054087	636.095593958573	966.871007287037	554.331606266423	558.153793252658	939.500003323368	467.295791797536	561.235694371794	1087.263333922407	759.295452800849	360.445986162784	1031.777197986300	628.607807909434	291.017843420968	1135.278901266226	572.186571173862	353.895660889252	1155.072751614834	504.341905778479	356.079504990283	1140.848560414110	430.799952319515	346.310818770101	1073.862677308327	300.036423122882	300.971614206019	1158.227095707095	202.732869115033	361.124033761377	890.202411550017	389.042611468779	568.275416122247	796.095472346101	305.227646576705	630.942935791534	813.065687357381	203.376781576514	566.456408976948	647.843928133209	56.872694748469	536.727200672200	823.198322589553	97.670479759570	569.529093056763	731.682880565333	42.031638719575	609.043908686618	939.507357974332	37.777549467691	595.171636406630	1066.243796946368	37.051390620924	406.416682091237	1137.917544505155	35.763343323188	323.339115577389	1217.963428883405	100.874688325787	345.979459979237	1347.414208167050	54.396055108759	315.321722967859	788.305139591559	1118.401698300378	230.481666520906	701.576950941224	875.090149714454	249.182964998643	1192.226658909033	1114.096823334394	724.373833909355	1392.363209752130	1217.988878988040	613.498356245813	
